<?xml version="1.0"?>
<svg xmlns="http://www.w3.org/2000/svg" xmlns:xlink="http://www.w3.org/1999/xlink" xmlns:svgjs="http://svgjs.com/svgjs" version="1.1" width="512" height="512" x="0" y="0" viewBox="0 0 256 256" style="enable-background:new 0 0 512 512" xml:space="preserve" class=""><g><g xmlns="http://www.w3.org/2000/svg" id="Layer_30"><g><path d="m241.5 185.7h-67c-6.6 0-12-5.4-12-12v-132.5c0-.1 0-.1 0-.2h-140c-6.6 0-12 5.4-12 12v140 .9c.6 6.1 5.8 10.7 11.9 10.6h211.2c6.1.1 11.3-4.5 11.9-10.6 0-.3 0-.6 0-.9v-8c-1.3.5-2.7.7-4 .7z" fill="#3a70bf" data-original="#3a70bf" style=""/><g fill="#edf4fc"><path d="m174.5 185.7c-6.6 0-12-5.4-12-12v-122.7h-140c-1.1 0-2 .9-2 2v140 .2c.2.8 1 1.4 1.9 1.3h211.2c.9.1 1.7-.5 1.9-1.4v-.1-7.3z" fill="#2ed9aa" data-original="#edf4fc" style="" class=""/><path d="m248.6 204.5h-241.2c-2.7 0-4.9 2.2-4.9 4.9 0 7.8 6.3 14.1 14.1 14.1h222.8c7.8 0 14.1-6.3 14.1-14.1 0-2.7-2.2-4.9-4.9-4.9z" fill="#2ed9aa" data-original="#edf4fc" style="" class=""/><path d="m162.5 51h-140c-1.1 0-2 .9-2 2v8.5h142z" fill="#2ed9aa" data-original="#edf4fc" style="" class=""/></g><path d="m36 51h-13.5c-1.1 0-2 .9-2 2v8.5h15.5z" fill="#9be5f9" data-original="#9be5f9" style=""/><path d="m84 204.5v1.7c0 3.7 3 6.8 6.8 6.8h75.4c3.7 0 6.8-3 6.8-6.8v-1.7z" fill="#c7d7e5" data-original="#c7d7e5" style=""/><path d="m241.5 185.7h-67c-6.6 0-12-5.4-12-12v-132.5c0-6.6 5.4-12 12-12h67c6.6 0 12 5.4 12 12v132.5c0 6.6-5.4 12-12 12z" fill="#3a70bf" data-original="#3a70bf" style=""/><path d="m244.6 41.2c0-1.7-1.4-3.2-3.2-3.2h-19.1c-1.6 0-3.1.9-3.8 2.3-3.4 5.9-10.8 7.9-16.7 4.6-1.9-1.1-3.5-2.7-4.6-4.6-.8-1.4-2.2-2.3-3.8-2.3h-19.1c-1.7 0-3.2 1.4-3.2 3.2v132.5c0 1.7 1.4 3.2 3.2 3.2h67c1.7 0 3.2-1.4 3.2-3.2v-132.5z" fill="#2ed9aa" data-original="#edf4fc" style="" class=""/><path d="m76 171.7h86.4v-28h-86.4c-1.9 0-3.4 1.5-3.4 3.4v21.2c0 1.9 1.6 3.4 3.4 3.4z" fill="#ef4460" data-original="#ef4460" style="" class=""/><path d="m112.8 101.1h28.3c2.3 0 4.2 1.9 4.2 4.2v23.4c0 2.3-1.9 4.2-4.2 4.2h-28.3c-2.3 0-4.2-1.9-4.2-4.2v-23.4c.1-2.4 1.9-4.2 4.2-4.2z" fill="#f5c84c" data-original="#f5c84c" style=""/><path d="m131.7 123.6-2.3-5.4c-.2-.6-.1-1.2.4-1.6 2.1-1.6 2.5-4.5.9-6.5s-4.5-2.5-6.5-.9c-2.1 1.6-2.5 4.5-.9 6.5l.9.9c.5.4.7 1 .4 1.6l-2.3 5.4c-.3.7 0 1.6.8 1.9.2.1.4.1.6.1h6.8c.8 0 1.5-.7 1.5-1.5-.1-.1-.2-.3-.3-.5z" fill="#3a70bf" data-original="#3a70bf" style=""/><path d="m226.8 111.6c-3.2 0-6.2-1.9-7.5-4.8h-35c-1.4 0-2.5 1.1-2.5 2.5v17.5c0 1.4 1.1 2.5 2.5 2.5h40.5c1.4 0 2.5-1.1 2.5-2.5v-15.3c-.2.1-.4.1-.5.1z" fill="#ef4460" data-original="#ef4460" style="" class=""/><circle cx="226.8" cy="103.2" fill="#f5c84c" r="8.4" data-original="#f5c84c" style=""/><path d="m164.9 241.2h-2.1v-2.1c0-1.5-1.3-2.8-2.8-2.8s-2.8 1.3-2.8 2.8v2.1h-2.1c-1.5 0-2.8 1.3-2.8 2.8s1.3 2.8 2.8 2.8h2.1v2.1c0 1.5 1.3 2.8 2.8 2.8s2.8-1.3 2.8-2.8v-2.1h2.1c1.5 0 2.8-1.3 2.8-2.8s-1.2-2.8-2.8-2.8z" fill="#87d147" data-original="#87d147" style=""/><path d="m124.6 12.2c-4-.7-7.1-3.8-7.9-7.7 0-.1-.1-.2-.2-.1-.1 0-.1.1-.1.1-.8 4-3.9 7-7.9 7.7-.1 0-.2.1-.1.2 0 .1.1.1.1.1 4 .7 7.1 3.8 7.9 7.7 0 .1.1.2.2.1.1 0 .1-.1.1-.1.8-4 3.9-7 7.9-7.7.1 0 .2-.1.1-.2 0 0 0-.1-.1-.1z" fill="#f5c84c" data-original="#f5c84c" style=""/><circle cx="194" cy="236.3" fill="#5290db" r="3" data-original="#5290db" style=""/><circle cx="147" cy="27.3" fill="#5290db" r="3" data-original="#5290db" style=""/><circle cx="51" cy="27.3" fill="#ef4460" r="3" data-original="#ef4460" style="" class=""/><path d="m16.6 226h222.8c9.2 0 16.6-7.4 16.6-16.6 0-4.1-3.3-7.4-7.4-7.4h-4c2.2-2.5 3.4-5.7 3.4-9v-6.3c4.9-2.5 8-7.5 8-13v-132.5c0-8-6.5-14.5-14.5-14.5h-67c-7 0-12.9 5-14.3 11.8h-137.7c-8 0-14.5 6.5-14.5 14.5v140 1.1c.2 2.9 1.4 5.7 3.3 7.9h-4c-4.1 0-7.4 3.3-7.4 7.4.1 9.1 7.5 16.6 16.7 16.6zm148.4-184.8c0-.1 0-.2 0-.2.1-5.2 4.3-9.3 9.5-9.3h67c5.3 0 9.5 4.3 9.5 9.5v132.5c0 5.3-4.3 9.5-9.5 9.5h-67c-5.3 0-9.5-4.3-9.5-9.5zm9.5 147h58.5v3.8h-210v-128h137v77.2h-84c-3.3 0-5.9 2.6-5.9 5.9v21.2c0 3.3 2.7 5.9 5.9 5.9h84c.3 7.8 6.7 14 14.5 14zm-151.5-129.2v-5.5h10.5v5.5zm15.5 0v-5.5h121.5v5.5zm121.5 87.2v23h-84c-.5 0-.9-.4-.9-.9v-21.2c0-.5.4-.9.9-.9zm-147-93.2c0-5.2 4.3-9.5 9.5-9.5h137.5v5h-137.5c-2.5 0-4.5 2-4.5 4.5v140 .3c.3 2.2 2.2 3.7 4.4 3.7h211.2c2.3.1 4.3-1.7 4.4-4v-4.8h3.5c.5 0 1 0 1.5-.1v4.8c-.1 5.1-4.3 9.1-9.4 9h-211.2c-4.8.1-8.9-3.5-9.4-8.3 0-.2 0-.5 0-.7zm157.4 154c-.4 2-2.2 3.5-4.2 3.5h-75.4c-2.1 0-3.8-1.5-4.2-3.5zm-163 0h74.1c.4 4.8 4.4 8.5 9.2 8.5h75.4c4.8 0 8.8-3.7 9.2-8.5h73.1c1.3 0 2.4 1.1 2.4 2.4 0 6.4-5.2 11.6-11.6 11.6h-222.6c-6.4 0-11.6-5.2-11.6-11.6 0-1.4 1.1-2.4 2.4-2.4z" fill="#000000" data-original="#000000" style="" class=""/><path d="m205.6 38.8h4.8c1.4 0 2.5-1.1 2.5-2.5s-1.1-2.5-2.5-2.5h-4.8c-1.4 0-2.5 1.1-2.5 2.5s1.1 2.5 2.5 2.5z" fill="#000000" data-original="#000000" style="" class=""/><path d="m187 51.7h4c1.4 0 2.5-1.1 2.5-2.5s-1.1-2.5-2.5-2.5h-4c-1.4 0-2.5 1.1-2.5 2.5s1.1 2.5 2.5 2.5z" fill="#000000" data-original="#000000" style="" class=""/><path d="m226.3 51.7h4c1.4 0 2.5-1.1 2.5-2.5s-1.1-2.5-2.5-2.5h-4c-1.4 0-2.5 1.1-2.5 2.5s1.2 2.5 2.5 2.5z" fill="#000000" data-original="#000000" style="" class=""/><path d="m174.5 179.4h67c3.1 0 5.7-2.5 5.7-5.7v-132.5c0-3.1-2.5-5.7-5.7-5.7h-19.1c-2.5 0-4.8 1.4-6 3.6-2.7 4.7-8.6 6.3-13.3 3.6-1.5-.9-2.8-2.1-3.6-3.6-1.2-2.2-3.5-3.6-6-3.6h-19.1c-3.1 0-5.7 2.5-5.7 5.7v132.5c.1 3.1 2.7 5.7 5.8 5.7zm-.7-138.2c0-.4.3-.7.7-.7h19.1c.7 0 1.3.4 1.6 1.1 4 7.1 13 9.5 20.1 5.5 2.3-1.3 4.2-3.2 5.5-5.5.3-.6.9-1 1.6-1.1h19.1c.4 0 .7.3.7.7v132.5c0 .4-.3.7-.7.7h-67c-.4 0-.7-.3-.7-.7z" fill="#000000" data-original="#000000" style="" class=""/><path d="m114.5 162.7c1 1 2.6 1 3.5 0l1.4-1.4 1.4 1.4c1 1 2.6 1 3.5 0 1-1 1-2.6 0-3.5l-1.4-1.4 1.4-1.4c1-1 1-2.6 0-3.5-1-1-2.6-1-3.5 0l-1.4 1.4-1.4-1.4c-1-1-2.6-1-3.5 0-1 1-1 2.6 0 3.5l1.4 1.4-1.4 1.4c-1 .9-1 2.5 0 3.5z" fill="#000000" data-original="#000000" style="" class=""/><path d="m129.9 162.7c1 1 2.6 1 3.5 0l1.4-1.4 1.4 1.4c1 1 2.6 1 3.5 0 1-1 1-2.6 0-3.5l-1.4-1.4 1.4-1.4c1-1 1-2.6 0-3.5-1-1-2.6-1-3.5 0l-1.4 1.4-1.4-1.4c-1-1-2.6-1-3.5 0-1 1-1 2.6 0 3.5l1.4 1.4-1.4 1.4c-.9.9-.9 2.5 0 3.5z" fill="#000000" data-original="#000000" style="" class=""/><path d="m83.5 162.7c1 1 2.6 1 3.5 0l1.4-1.4 1.4 1.4c1 1 2.6 1 3.5 0 1-1 1-2.6 0-3.5l-1.4-1.4 1.4-1.4c1-1 1-2.6 0-3.5-1-1-2.6-1-3.5 0l-1.4 1.4-1.4-1.4c-1-1-2.6-1-3.5 0-1 1-1 2.6 0 3.5l1.4 1.4-1.4 1.4c-1 .9-1 2.5 0 3.5z" fill="#000000" data-original="#000000" style="" class=""/><path d="m99 162.7c1 1 2.6 1 3.5 0l1.4-1.4 1.4 1.4c1 1 2.6 1 3.5 0 1-1 1-2.6 0-3.5l-1.4-1.4 1.4-1.4c1-1 1-2.6 0-3.5-1-1-2.6-1-3.5 0l-1.4 1.4-1.4-1.4c-1-1-2.6-1-3.5 0-1 1-1 2.6 0 3.5l1.4 1.4-1.4 1.4c-1 .9-1 2.5 0 3.5z" fill="#000000" data-original="#000000" style="" class=""/><path d="m145.4 162.7c1 1 2.6 1 3.5 0l1.4-1.4 1.4 1.4c1 1 2.5 1 3.5 0s1-2.5 0-3.5l-1.4-1.4 1.4-1.4c1-1 1-2.5 0-3.5s-2.5-1-3.5 0l-1.4 1.4-1.4-1.4c-1-1-2.5-1-3.5 0s-1 2.5 0 3.5l1.4 1.4-1.4 1.4c-1 .9-1 2.5 0 3.5z" fill="#000000" data-original="#000000" style="" class=""/><path d="m112.8 135.2h28.3c3.7 0 6.7-3 6.7-6.7v-23.4c0-3.4-2.6-6.3-6-6.6v-4.1c0-8.2-6.6-14.8-14.8-14.8s-14.8 6.6-14.8 14.8v4.1c-3.4.3-6 3.2-6 6.6v23.4c0 3.8 3 6.7 6.6 6.7zm4.4-40.7c0-5.4 4.4-9.8 9.8-9.8s9.8 4.4 9.8 9.8v4.1h-19.6zm-6 10.7c0-.9.7-1.7 1.7-1.7h28.3c.9 0 1.7.7 1.7 1.7v23.4c0 .9-.7 1.7-1.7 1.7h-28.3c-.9 0-1.7-.7-1.7-1.7z" fill="#000000" data-original="#000000" style="" class=""/><path d="m123.6 128.1h6.8c2.2 0 4-1.8 4-4 0-.5-.1-1.1-.3-1.6l-2-4.7c2.8-2.8 2.8-7.3.1-10.1-2.8-2.8-7.3-2.8-10.1-.1-1.4 1.3-2.1 3.2-2.1 5.1s.8 3.8 2.1 5.1l-2 4.7c-.9 2 .1 4.3 2.1 5.2.3.3.9.4 1.4.4zm1.6-5 1.7-4c0-.1.1-.2.1-.3 0 .1.1.2.1.3l1.7 4zm1.8-12.4c1.2 0 2.2 1 2.2 2.2 0 .7-.3 1.3-.9 1.7-.6.5-1.1 1.1-1.3 1.8-.2-.7-.7-1.4-1.3-1.8-1-.7-1.1-2.1-.4-3 .4-.6 1-.9 1.7-.9z" fill="#000000" data-original="#000000" style="" class=""/><path d="m184.2 131.8h40.5c2.8 0 5-2.2 5-5v-13.2c5.8-1.6 9.1-7.6 7.5-13.4s-7.6-9.1-13.4-7.5c-4.7 1.3-7.9 5.6-7.9 10.4 0 .4 0 .7.1 1.1h-31.7c-2.8 0-5 2.2-5 5v17.5c-.1 2.9 2.1 5.1 4.9 5.1zm42.6-34.4c3.2 0 5.8 2.6 5.9 5.8 0 3.1-2.4 5.7-5.5 5.8h-.2c-.1 0-.1 0-.2 0-.3 0-.5 0-.8-.1-.1 0-.1 0-.2 0-1.9-.3-3.5-1.5-4.4-3.3-1.4-2.9-.1-6.4 2.8-7.8.8-.2 1.7-.4 2.6-.4zm-42.6 11.9h33.6c1.6 2.4 4.1 4 6.9 4.6v12.9h-40.5z" fill="#000000" data-original="#000000" style="" class=""/><path d="m196.8 113.7c-1-1-2.6-1-3.5 0l-.8.8-.8-.8c-1-1-2.5-1-3.5 0s-1 2.5 0 3.5l.8.8-.8.8c-1 1-1 2.5 0 3.5s2.5 1 3.5 0l.8-.8.8.8c1 1 2.5 1 3.5 0s1-2.5 0-3.5l-.8-.8.8-.8c1-.9 1-2.5 0-3.5z" fill="#000000" data-original="#000000" style="" class=""/><path d="m209 113.7c-1-1-2.6-1-3.5 0l-.8.8-.8-.8c-1-1-2.6-1-3.5 0-1 1-1 2.6 0 3.5l.8.8-.8.8c-1 1-1 2.6 0 3.5 1 1 2.6 1 3.5 0l.8-.8.8.8c1 1 2.6 1 3.5 0 1-1 1-2.6 0-3.5l-.8-.8.8-.8c1-.9 1-2.5 0-3.5z" fill="#000000" data-original="#000000" style="" class=""/><path d="m221.3 113.7c-1-1-2.6-1-3.5 0l-.8.8-.8-.8c-1-1-2.5-1-3.5 0s-1 2.5 0 3.5l.8.8-.8.8c-1 1-1 2.5 0 3.5s2.5 1 3.5 0l.8-.8.8.8c1 1 2.5 1 3.5 0s1-2.5 0-3.5l-.8-.8.8-.8c1-.9 1-2.5 0-3.5z" fill="#000000" data-original="#000000" style="" class=""/></g></g></g></svg>
