<?xml version="1.0"?>
<svg xmlns="http://www.w3.org/2000/svg" xmlns:xlink="http://www.w3.org/1999/xlink" xmlns:svgjs="http://svgjs.com/svgjs" version="1.1" width="512" height="512" x="0" y="0" viewBox="0 0 351.914 351.914" style="enable-background:new 0 0 512 512" xml:space="preserve" class=""><g>
<g xmlns="http://www.w3.org/2000/svg">
	<path d="M345.168,310.336l-61.303-61.315c18.14-25.532,28.925-56.655,28.925-90.306c0-86.232-70.16-156.389-156.392-156.389   C70.154,2.325,0,72.477,0,158.714c0,86.241,70.148,156.401,156.398,156.401c36.02,0,69.142-12.37,95.599-32.906l60.643,60.643   c4.498,4.485,10.389,6.737,16.268,6.737c5.896,0,11.769-2.24,16.261-6.737C354.163,333.868,354.163,319.318,345.168,310.336z    M224.243,135.701c-2.582,1.261-5.332,1.855-8.047,1.855c-6.809,0-13.366-3.798-16.549-10.334   c-9.859-20.224-29.931-32.786-52.407-32.786c-10.169,0-18.402-8.23-18.402-18.399c0-10.151,8.233-18.396,18.402-18.396   c36.65,0,69.413,20.479,85.494,53.452C237.189,120.229,233.383,131.248,224.243,135.701z" fill="#ffffff" data-original="#000000" style="" class=""/>
</g>
<g xmlns="http://www.w3.org/2000/svg">
</g>
<g xmlns="http://www.w3.org/2000/svg">
</g>
<g xmlns="http://www.w3.org/2000/svg">
</g>
<g xmlns="http://www.w3.org/2000/svg">
</g>
<g xmlns="http://www.w3.org/2000/svg">
</g>
<g xmlns="http://www.w3.org/2000/svg">
</g>
<g xmlns="http://www.w3.org/2000/svg">
</g>
<g xmlns="http://www.w3.org/2000/svg">
</g>
<g xmlns="http://www.w3.org/2000/svg">
</g>
<g xmlns="http://www.w3.org/2000/svg">
</g>
<g xmlns="http://www.w3.org/2000/svg">
</g>
<g xmlns="http://www.w3.org/2000/svg">
</g>
<g xmlns="http://www.w3.org/2000/svg">
</g>
<g xmlns="http://www.w3.org/2000/svg">
</g>
<g xmlns="http://www.w3.org/2000/svg">
</g>
</g></svg>
