<svg height="512" viewBox="0 0 256 256" width="512" xmlns="http://www.w3.org/2000/svg"><path d="m221.4 81.42h-206.411a9.487 9.487 0 0 0 -9.48 9.48v115.92a9.487 9.487 0 0 0 9.48 9.48h206.411a9.481 9.481 0 0 0 9.48-9.48v-115.92a9.481 9.481 0 0 0 -9.48-9.48z" fill="#72c1e8"/><path d="m180.842 132.9a16.8 16.8 0 1 1 0-29.1 16.8 16.8 0 0 0 0 29.1z" fill="#fc5d3d"/><path d="m189.242 118.349a16.785 16.785 0 0 1 -8.4 14.55 16.8 16.8 0 0 1 0-29.1 16.785 16.785 0 0 1 8.4 14.55z" fill="#f0ab20"/><path d="m206.042 118.349a16.813 16.813 0 0 1 -25.2 14.55 16.8 16.8 0 0 0 0-29.1 16.813 16.813 0 0 1 25.2 14.55z" fill="#f9e5af"/><rect fill="#f9e5af" height="32.195" rx="4.542" width="45.718" x="23.08" y="102.252"/><path d="m241.022 42.609h-206.41a9.472 9.472 0 0 0 -9.47 9.48v29.33h196.25a9.483 9.483 0 0 1 9.49 9.48v86.58h10.14a9.47 9.47 0 0 0 9.47-9.47v-115.92a9.466 9.466 0 0 0 -9.47-9.48z" fill="#afafaf"/><path d="m250.489 64.86v27.73h-19.61v-1.69a9.481 9.481 0 0 0 -9.48-9.48h-196.26v-16.56z" fill="#4c4945"/><g fill="#f0c020"><path d="m248.023 22.787c-3.683-1.217-7.487-2.281-9.623-11.481-1.967 8.474-5.118 9.992-9.622 11.481 7.346 2.427 8.455 6.447 9.622 11.48 2.013-8.676 5.343-10.067 9.623-11.48z"/><path d="m215.664 17.535c-3.683-1.217-7.487-2.281-9.622-11.481-1.967 8.474-5.119 9.992-9.623 11.481 7.347 2.427 8.455 6.447 9.623 11.48 2.013-8.676 5.342-10.066 9.622-11.48z"/><path d="m38.038 238.459c-3.683-1.217-7.487-2.281-9.622-11.48-1.968 8.473-5.119 9.992-9.623 11.48 7.346 2.428 8.455 6.448 9.623 11.481 2.012-8.677 5.342-10.067 9.622-11.481z"/></g><path d="m218.835 207.292h-47.664a2.5 2.5 0 0 1 0-5h45.164v-105.835a2.5 2.5 0 0 1 5 0v108.335a2.5 2.5 0 0 1 -2.5 2.5zm-57.664 0h-.5a2.5 2.5 0 0 1 0-5h.5a2.5 2.5 0 0 1 0 5z" fill="#c5e5ff"/><path d="m150.335 95.618h-3.255a2.5 2.5 0 0 1 0-5h3.255a2.5 2.5 0 0 1 0 5zm-13.255 0h-114a2.5 2.5 0 0 1 0-5h114a2.5 2.5 0 0 1 0 5z" fill="#c5e5ff"/><path d="m235.38 56.234h-3.98a2.5 2.5 0 0 1 0-5h3.983a2.5 2.5 0 0 1 0 5zm-13.983 0h-179.997a2.5 2.5 0 0 1 0-5h180a2.5 2.5 0 0 1 0 5z" fill="#efefef"/><path d="m235.991 34.826a2.474 2.474 0 0 0 4.819 0c1.771-7.637 4.379-8.5 7.989-9.691a2.476 2.476 0 0 0 0-4.7c-3.468-1.142-6.176-1.881-7.99-9.691a2.475 2.475 0 0 0 -4.818 0c-1.773 7.637-4.246 8.454-7.989 9.692a2.475 2.475 0 0 0 0 4.7c6.217 2.053 6.922 5.091 7.989 9.69zm2.419-16.3a12.612 12.612 0 0 0 3.7 4.279 12.239 12.239 0 0 0 -3.658 4.129 12.852 12.852 0 0 0 -3.873-4.095 12.266 12.266 0 0 0 3.831-4.309z"/><path d="m195.643 19.884c6.218 2.054 6.922 5.092 7.989 9.69a2.474 2.474 0 0 0 4.819 0c1.772-7.636 4.38-8.5 7.989-9.69a2.476 2.476 0 0 0 0-4.7c-3.468-1.142-6.176-1.881-7.989-9.691a2.475 2.475 0 0 0 -4.818 0c-1.774 7.637-4.247 8.455-7.99 9.692a2.476 2.476 0 0 0 0 4.699zm10.408-6.6a12.623 12.623 0 0 0 3.7 4.279 12.238 12.238 0 0 0 -3.659 4.128 12.86 12.86 0 0 0 -3.872-4.095 12.261 12.261 0 0 0 3.831-4.317z"/><path d="m26.006 250.5a2.474 2.474 0 0 0 4.819 0c1.771-7.637 4.38-8.5 7.989-9.691a2.476 2.476 0 0 0 0-4.7c-3.468-1.142-6.176-1.881-7.989-9.692a2.476 2.476 0 0 0 -4.819 0c-1.773 7.638-4.246 8.455-7.989 9.692a2.476 2.476 0 0 0 0 4.7c6.217 2.053 6.922 5.091 7.989 9.691zm2.419-16.3a12.633 12.633 0 0 0 3.7 4.279 12.246 12.246 0 0 0 -3.658 4.128 12.84 12.84 0 0 0 -3.873-4.094 12.266 12.266 0 0 0 3.831-4.313z"/><path d="m23.079 178.94a2.5 2.5 0 0 0 0 5h9.1a2.5 2.5 0 0 0 0-5h-2.05v-11.15a2.5 2.5 0 0 0 -3.62-2.23l-4.28 2.15a2.5 2.5 0 0 0 -1.121 3.35 2.561 2.561 0 0 0 3.361 1.12l.66-.33v7.09z"/><path d="m56.429 176.89v-4.55a7.045 7.045 0 1 0 -14.09 0v4.55a7.045 7.045 0 1 0 14.09 0zm-9.09 0v-4.55a2.045 2.045 0 1 1 4.09 0v4.55a2.045 2.045 0 1 1 -4.09 0z"/><path d="m71.139 165.29a7.059 7.059 0 0 0 -7.04 7.05v4.55a7.045 7.045 0 1 0 14.089 0v-4.55a7.06 7.06 0 0 0 -7.049-7.05zm2.049 11.6a2.05 2.05 0 1 1 -4.1 0v-4.55a2.05 2.05 0 1 1 4.1 0z"/><path d="m88.349 178.94a2.5 2.5 0 1 0 0 5h9.1a2.5 2.5 0 1 0 0-5h-2.049v-11.15a2.5 2.5 0 0 0 -3.619-2.23l-4.28 2.15a2.494 2.494 0 0 0 -1.11 3.35 2.532 2.532 0 0 0 3.35 1.11l.659-.33v7.1z"/><path d="m121.709 176.89v-4.55a7.051 7.051 0 0 0 -14.1 0v4.55a7.051 7.051 0 0 0 14.1 0zm-9.1 0v-4.55a2.051 2.051 0 0 1 4.1 0v4.55a2.051 2.051 0 0 1 -4.1 0z"/><path d="m129.369 181.44a2.507 2.507 0 0 0 2.5 2.5h9.09a2.5 2.5 0 0 0 0-5h-2.05v-11.15a2.5 2.5 0 0 0 -3.62-2.23l-4.28 2.15a2.491 2.491 0 0 0 -1.111 3.35 2.545 2.545 0 0 0 3.361 1.11l.65-.33.007 7.1h-2.047a2.5 2.5 0 0 0 -2.5 2.5z"/><path d="m97.03 198.243a2.5 2.5 0 0 0 2.5 2.5h43.489a2.5 2.5 0 0 0 0-5h-43.489a2.5 2.5 0 0 0 -2.5 2.5z"/><path d="m23.968 195.743a2.5 2.5 0 1 0 0 5h60.592a2.5 2.5 0 0 0 0-5z"/><path d="m160.669 179.15a2.5 2.5 0 1 0 0 5h11.81a2.5 2.5 0 1 0 0-5z"/><path d="m194.239 179.16a2.5 2.5 0 1 0 0 4.99h11.8a2.5 2.5 0 1 0 0-4.99z"/><path d="m184.239 165.78-4.52 15.16a2.5 2.5 0 0 0 4.79 1.43l4.52-15.17a2.494 2.494 0 0 0 -1.68-3.1 2.542 2.542 0 0 0 -3.11 1.68z"/><path d="m22.642 52.089v26.831h-7.653a12 12 0 0 0 -11.98 11.98v18.7a2.5 2.5 0 0 0 5 0v-18.7a7.005 7.005 0 0 1 6.98-6.98h206.411a7.012 7.012 0 0 1 6.981 6.98v115.92a7 7 0 0 1 -6.981 6.98h-206.411a6.992 6.992 0 0 1 -6.98-6.98v-77.22a2.5 2.5 0 0 0 -5 0v77.22a12 12 0 0 0 11.98 11.98h206.411a12 12 0 0 0 11.981-11.98v-26.841h7.642a11.983 11.983 0 0 0 11.97-11.97v-115.92a11.988 11.988 0 0 0 -11.97-11.98h-206.412a11.988 11.988 0 0 0 -11.969 11.98zm225.349 115.92a6.978 6.978 0 0 1 -6.97 6.97h-7.639v-79.89h14.609zm0-77.92h-14.637a12.039 12.039 0 0 0 -11.962-11.17h-193.75v-11.56h220.349zm0-38v10.27h-220.349v-10.27a6.983 6.983 0 0 1 6.969-6.98h206.41a6.983 6.983 0 0 1 6.97 6.98z"/><circle cx="5.509" cy="119.6" r="2.5"/><path d="m123.148 131.95h-30.248a2.5 2.5 0 1 0 0 4.99h30.25a2.5 2.5 0 1 0 0-4.99z"/><path d="m64.257 99.751h-36.636a7.049 7.049 0 0 0 -7.041 7.042v23.112a7.048 7.048 0 0 0 7.041 7.041h36.636a7.048 7.048 0 0 0 7.041-7.041v-23.112a7.049 7.049 0 0 0 -7.041-7.042zm-38.677 7.042a2.044 2.044 0 0 1 2.041-2.042h5.867l3.8 6.417h-11.708zm7.908 25.153h-5.867a2.044 2.044 0 0 1 -2.041-2.041v-4.376h11.708zm5.412-11.417h-13.32v-4.361h13.32zm9.432 4.241 4.25 7.176h-13.282l4.25-7.176a2.5 2.5 0 0 0 .35-1.27v-10.3a2.5 2.5 0 0 0 -.348-1.274l-4.25-7.177h13.28l-4.25 7.177a2.5 2.5 0 0 0 -.349 1.274v10.3a2.506 2.506 0 0 0 .346 1.27zm17.968 5.135a2.044 2.044 0 0 1 -2.041 2.041h-5.869l-3.8-6.417h11.71zm0-9.376h-13.32v-4.361h13.32zm0-9.361h-11.71l3.8-6.417h5.867a2.044 2.044 0 0 1 2.041 2.042z"/><path d="m180.841 100.976a19.3 19.3 0 1 0 0 34.746 19.3 19.3 0 1 0 0-34.746zm-22.7 17.373a14.315 14.315 0 0 1 17.705-13.89 19.285 19.285 0 0 0 0 27.779 14.314 14.314 0 0 1 -17.704-13.889zm22.7 11.563a14.279 14.279 0 0 1 0-23.126 14.282 14.282 0 0 1 0 23.126zm4.994 2.327a19.289 19.289 0 0 0 0-27.78 14.3 14.3 0 1 1 0 27.78z"/></svg>