<svg height="512pt" viewBox="-28 0 512 512" width="512pt" xmlns="http://www.w3.org/2000/svg"><path d="m7.5 7.5h442v497h-442zm0 0" fill="#fbe1a8"/><path d="m419.5 7.5h30v497h-30zm0 0" fill="#f2cf91"/><path d="m37.5 37.5h113.375v324h-113.375zm0 0" fill="#b5fcff"/><path d="m120.875 37.5h30v324h-30zm0 0" fill="#8cf2ff"/><path d="m180.875 37.5h238.625v324h-238.625zm0 0" fill="#af8164"/><path d="m243.5 401.5h176v70h-176zm0 0" fill="#eabf7e"/><path d="m37.5 401.5h176v70h-176zm0 0" fill="#eabf7e"/><path d="m448.441406 215.605469-27.671875 30.117187c-1.488281 1.621094-4.003906 1.714844-5.609375.210938l-14.445312-13.527344c-2.535156-2.378906-6.664063-.5625-6.664063 2.929688v76.324218c0 2.207032-1.777343 4-3.96875 4h-101.164062c-2.191407 0-3.96875-1.792968-3.96875-4v-76.320312c0-3.496094-4.128907-5.308594-6.667969-2.933594l-14.433594 13.527344c-1.605468 1.503906-4.117187 1.410156-5.609375-.210938l-27.679687-30.117187c-1.496094-1.625-1.394532-4.164063.222656-5.664063l53.03125-49.222656c.730469-.683594 1.691406-1.058594 2.683594-1.058594h106.003906c.996094 0 1.957031.375 2.6875 1.058594l53.03125 49.222656c1.617188 1.5 1.714844 4.039063.222656 5.664063zm0 0" fill="#6d6670"/><path d="m411.269531 215.605469-27.671875 30.117187c-1.492187 1.621094-4.003906 1.714844-5.613281.210938l-14.441406-13.527344c-2.539063-2.378906-6.667969-.5625-6.667969 2.929688v76.324218c0 2.207032-1.777344 4-3.96875 4h-101.164062c-2.191407 0-3.964844-1.792968-3.964844-4v-76.320312c0-3.496094-4.132813-5.308594-6.667969-2.933594l-14.433594 13.527344c-1.609375 1.503906-4.121093 1.410156-5.613281-.210938l-27.679688-30.117187c-1.492187-1.625-1.394531-4.164063.222657-5.664063l53.03125-49.222656c.730469-.683594 1.691406-1.058594 2.6875-1.058594h106c.996093 0 1.957031.375 2.6875 1.058594l53.03125 49.222656c1.617187 1.5 1.71875 4.039063.226562 5.664063zm0 0" fill="#ffd659"/><path d="m369.816406 215.605469-27.671875 30.117187c-1.488281 1.621094-4.003906 1.714844-5.609375.210938l-14.445312-13.527344c-2.535156-2.378906-6.664063-.5625-6.664063 2.929688v76.324218c0 2.207032-1.777343 4-3.96875 4h-101.164062c-2.191407 0-3.96875-1.792968-3.96875-4v-76.320312c0-3.496094-4.128907-5.308594-6.667969-2.933594l-14.433594 13.527344c-1.605468 1.503906-4.117187 1.410156-5.609375-.210938l-27.679687-30.117187c-1.496094-1.625-1.394532-4.164063.222656-5.664063l53.03125-49.222656c.730469-.683594 1.691406-1.058594 2.683594-1.058594h106.003906c.996094 0 1.957031.375 2.6875 1.058594l53.03125 49.222656c1.617188 1.5 1.714844 4.039063.222656 5.664063zm0 0" fill="#fe5e70"/><path d="m264.09375 188.667969h-6.4375c-15.894531 0-28.78125-12.886719-28.78125-28.785157v-.222656h64v.222656c0 15.898438-12.886719 28.785157-28.78125 28.785157zm0 0" fill="#d43b4c"/><path d="m340.398438 132h-84c-8.28125 0-15-6.714844-15-15s6.71875-15 15-15h84c8.285156 0 15 6.714844 15 15s-6.714844 15-15 15zm0 0" fill="#6d6670"/><path d="m340.398438 102h-30c8.285156 0 15 6.714844 15 15s-6.714844 15-15 15h30c8.285156 0 15-6.714844 15-15s-6.714844-15-15-15zm0 0" fill="#5b545f"/><path d="m340.398438 102h-84c-8.28125 0-15-6.714844-15-15s6.71875-15 15-15h84c8.285156 0 15 6.714844 15 15s-6.714844 15-15 15zm0 0" fill="#ffd659"/><path d="m340.398438 72h-30c8.285156 0 15 6.714844 15 15s-6.714844 15-15 15h30c8.285156 0 15-6.714844 15-15s-6.714844-15-15-15zm0 0" fill="#ffbd54"/><path d="m449.496094 472.167969c-4.140625 0-7.5 3.355469-7.5 7.5v17.332031h-426.996094v-401.25c0-4.140625-3.355469-7.5-7.5-7.5s-7.5 3.359375-7.5 7.5v408.75c0 4.140625 3.355469 7.5 7.5 7.5h441.996094c4.144531 0 7.5-3.359375 7.5-7.5v-24.832031c0-4.144531-3.355469-7.5-7.5-7.5zm0 0"/><path d="m419.496094 479c4.144531 0 7.5-3.359375 7.5-7.5v-70c0-4.140625-3.355469-7.5-7.5-7.5h-175.996094c-4.144531 0-7.5 3.359375-7.5 7.5v70c0 4.140625 3.355469 7.5 7.5 7.5zm-168.496094-70h160.996094v55h-160.996094zm0 0"/><path d="m213.5 479c4.140625 0 7.5-3.359375 7.5-7.5v-70c0-4.140625-3.359375-7.5-7.5-7.5h-176c-4.144531 0-7.5 3.359375-7.5 7.5v70c0 4.140625 3.355469 7.5 7.5 7.5zm-168.5-70h161v55h-161zm0 0"/><path d="m456.996094 212.648438v-205.148438c0-4.140625-3.355469-7.5-7.5-7.5h-441.996094c-4.144531 0-7.5 3.359375-7.5 7.5v56.25c0 4.140625 3.355469 7.5 7.5 7.5s7.5-3.359375 7.5-7.5v-48.75h426.996094v178.933594l-15-13.921875v-142.511719c0-4.140625-3.355469-7.5-7.5-7.5h-31c-4.140625 0-7.5 3.359375-7.5 7.5s3.359375 7.5 7.5 7.5h23.5v79.5h-50.382813c.832031-2.347656 1.285157-4.871094 1.285157-7.5 0-5.757812-2.175782-11.015625-5.746094-15 3.570312-3.984375 5.746094-9.242188 5.746094-15 0-12.40625-10.09375-22.5-22.5-22.5h-84c-12.40625 0-22.5 10.09375-22.5 22.5 0 5.757812 2.171874 11.015625 5.742187 15-3.570313 3.984375-5.742187 9.242188-5.742187 15 0 2.628906.453124 5.152344 1.285156 7.5h-46.804688v-79.5h168.117188c4.144531 0 7.5-3.359375 7.5-7.5s-3.355469-7.5-7.5-7.5h-175.617188c-4.144531 0-7.5 3.359375-7.5 7.5v94.242188c-.003906.085937-.003906.171874-.003906.257812s0 .171875.003906.257812v47.75l-15.003906 13.929688v-156.4375c0-4.140625-3.359375-7.5-7.5-7.5h-113.375c-4.144531 0-7.5 3.359375-7.5 7.5v324c0 4.140625 3.355469 7.5 7.5 7.5h113.375c4.140625 0 7.5-3.359375 7.5-7.5v-127.804688l15.003906 16.328126v111.476562c0 4.140625 3.355469 7.5 7.5 7.5h238.617188c4.144531 0 7.5-3.359375 7.5-7.5v-111.476562l15-16.328126v214.304688c0 4.140625 3.359375 7.5 7.5 7.5 4.144531 0 7.5-3.359375 7.5-7.5v-234.867188c.003906-.160156.003906-.324218 0-.484374zm-313.621094 141.351562h-98.375v-309h98.375zm268.621094-187.910156-11.695313-10.859375c-2.128906-1.980469-4.898437-3.070313-7.804687-3.070313h-44.5v-12.660156h64zm-47.628906 77.367187 8.472656 7.929688c3.886718 3.667969 9.527344 4.003906 13.707031 1.503906v55.269531h-22.179687zm-15 64.703125h-26.445313v-64.699218l8.484375 7.945312c4.652344 4.355469 11.945312 4.085938 16.257812-.609375l1.703126-1.855469zm31.128906-70.152344-11.335938-10.605468 6.179688-6.722656c4.273437-4.652344 3.984375-11.9375-.644532-16.234376l-40.167968-37.285156h19.394531l49.480469 45.917969zm-96.402344-70.847656c-2.980469 8.164063-10.820312 14.003906-20.003906 14.003906h-6.433594c-9.183594 0-17.023438-5.839843-20.003906-14.003906zm-15.597656-15v-12.660156h25.65625v12.660156zm40.65625-12.660156h23.847656v12.660156h-23.847656zm-52.753906-60h84c4.136718 0 7.5 3.363281 7.5 7.5s-3.363282 7.5-7.5 7.5h-84c-4.136719 0-7.5-3.363281-7.5-7.5s3.363281-7.5 7.5-7.5zm-7.5 37.5c0-4.136719 3.363281-7.5 7.5-7.5h84c4.136718 0 7.5 3.363281 7.5 7.5s-3.363282 7.5-7.5 7.5h-84c-4.136719 0-7.5-3.363281-7.5-7.5zm-60.519532 22.5h65.117188v12.660156h-45.625c-2.894532 0-5.660156 1.085938-7.789063 3.058594l-11.703125 10.867188zm20.890625 27.660156h12.835938c3.378906 16.53125 18.035156 29.003906 35.550781 29.003906h6.433594c17.515625 0 32.171875-12.472656 35.550781-29.003906h12.839844l49.46875 45.917969-22.902344 24.929687-11.828125-11.078124c-7.347656-6.878907-19.292969-1.597657-19.292969 8.40625v72.824218h-94.101562v-72.820312c0-10.023438-11.96875-15.273438-19.296875-8.40625l-11.816406 11.074218-22.910157-24.929687c2.886719-2.679687 47.6875-44.265625 49.46875-45.917969zm-20.890625 186.839844v-101.105469c1.808594-1.085937 2-1.621093 10.445313-9.429687v68.195312c0 6.339844 5.144531 11.5 11.46875 11.5h179.785156c6.324219 0 11.46875-5.160156 11.46875-11.5v-68.199218c8.488281 7.839843 8.652344 8.347656 10.449219 9.425781v101.113281zm229.289063-115.992188-9.03125-8.457031 8.152343-8.871093c4.269532-4.648438 3.988282-11.925782-.640624-16.238282l-40.175782-37.28125h15.128906l49.46875 45.917969zm0 0"/><path d="m129.5 429h-10c-4.144531 0-7.5 3.359375-7.5 7.5s3.355469 7.5 7.5 7.5h10c4.140625 0 7.5-3.359375 7.5-7.5s-3.359375-7.5-7.5-7.5zm0 0"/><path d="m336.496094 429h-10c-4.140625 0-7.5 3.359375-7.5 7.5s3.359375 7.5 7.5 7.5h10c4.144531 0 7.5-3.359375 7.5-7.5s-3.355469-7.5-7.5-7.5zm0 0"/></svg>