<?xml version="1.0"?>
<svg xmlns="http://www.w3.org/2000/svg" xmlns:xlink="http://www.w3.org/1999/xlink" xmlns:svgjs="http://svgjs.com/svgjs" version="1.1" width="512" height="512" x="0" y="0" viewBox="0 0 512 512" style="enable-background:new 0 0 512 512" xml:space="preserve" class=""><g><g xmlns="http://www.w3.org/2000/svg"><path d="m406 0h-325v467c0 24.814 20.187 45 45 45h305v-467c0-24.813-.187-45-25-45zm-240 121h90c8.284 0 15 6.716 15 15s-6.716 15-15 15h-90c-8.284 0-15-6.716-15-15s6.716-15 15-15zm180 270h-180c-8.284 0-15-6.716-15-15s6.716-15 15-15h180c8.284 0 15 6.716 15 15s-6.716 15-15 15zm0-60h-180c-8.284 0-15-6.716-15-15s6.716-15 15-15h180c8.284 0 15 6.716 15 15s-6.716 15-15 15zm0-60h-180c-8.284 0-15-6.716-15-15s6.716-15 15-15h180c8.284 0 15 6.716 15 15s-6.716 15-15 15zm0-60h-180c-8.284 0-15-6.716-15-15s6.716-15 15-15h180c8.284 0 15 6.716 15 15s-6.716 15-15 15z" fill="#1859d9" data-original="#000000" style="" class=""/><path d="m0 45v90c0 8.284 6.716 15 15 15h36v-150h-6c-24.813 0-45 20.187-45 45z" fill="#1859d9" data-original="#000000" style="" class=""/><path d="m497 362h-36v150h6c24.813 0 45-20.186 45-45v-90c0-8.284-6.716-15-15-15z" fill="#1859d9" data-original="#000000" style="" class=""/></g></g></svg>
