<svg id="Capa_1" enable-background="new 0 0 512 512" height="512" viewBox="0 0 512 512" width="512" xmlns="http://www.w3.org/2000/svg"><g><path d="m124.394 222.991c-9.36 0-17.261 10.31-17.261 22.5 0 12.2 7.9 22.51 17.261 22.51 9.36 0 17.27-10.31 17.27-22.51 0-12.19-7.91-22.5-17.27-22.5z"/><path d="m275.758 341.981c-9.36 0-17.261 10.31-17.261 22.51 0 12.19 7.9 22.5 17.261 22.5 9.36 0 17.271-10.31 17.271-22.5 0-12.2-7.911-22.51-17.271-22.51z"/><path d="m373.851 159.691c-152.083-139.938-144.304-134.593-156.395-139.29-17.183-6.816-37.629-3.252-51.752 9.74l-140.793 129.55c-15.831 14.56-24.911 35.28-24.911 56.86v229.41c0 27.03 21.881 49.03 48.771 49.03h301.209c26.891 0 48.771-22 48.771-49.03v-229.41c.001-21.58-9.08-42.3-24.9-56.86zm-188.986-49.18c.909-8.718 8.905-14.909 17.851-13.23 8.556 1.784 13.375 9.994 11.78 17.64-1.695 8.146-9.358 13.335-17.64 11.78-7.91-1.65-12.738-8.836-11.991-16.19zm-107.733 134.98c0-28.95 21.201-52.5 47.262-52.5 26.071 0 47.271 23.55 47.271 52.5s-21.201 52.51-47.271 52.51c-26.061 0-47.262-23.56-47.262-52.51zm85.993 159.66c-10.6 0-17.998-10.868-13.82-20.81l73.022-174.04c3.21-7.64 12-11.24 19.64-8.03 7.64 3.2 11.23 12 8.03 19.64l-73.032 174.04c-2.41 5.74-7.97 9.2-13.84 9.2zm112.633 11.84c-26.061 0-47.261-23.55-47.261-52.5s21.201-52.51 47.261-52.51c26.061 0 47.271 23.56 47.271 52.51s-21.21 52.5-47.271 52.5z"/><path d="m508.235 324.431c-48.84-142.174-75.967-221.222-76.352-222.12-8.49-19.66-24.991-34.95-45.251-41.94-1.163-.395 5.697 1.271-103.093-24.54l110.613 101.78c21.99 20.22 34.601 48.99 34.601 78.94v194.4l53.962-23.1c24.41-10.56 35.76-38.91 25.52-63.42z"/></g></svg>