<?xml version="1.0"?>
<svg xmlns="http://www.w3.org/2000/svg" xmlns:xlink="http://www.w3.org/1999/xlink" xmlns:svgjs="http://svgjs.com/svgjs" version="1.1" width="512" height="512" x="0" y="0" viewBox="0 0 124 124" style="enable-background:new 0 0 512 512" xml:space="preserve"><g>
<g xmlns="http://www.w3.org/2000/svg">
	<path d="M124,26.9c0-3.4-2.8-5.9-6.2-5.9H6.2C2.8,21,0,23.4,0,26.9V38h124V26.9z" fill="#f5a200" data-original="#000000" style=""/>
	<path d="M6.2,103h111.6c3.4,0,6.2-2.4,6.2-5.9V52H0v45.1C0,100.6,2.8,103,6.2,103z M107,78.7c3.9,0,7,3.1,7,7c0,3.899-3.1,7-7,7   s-7-3.101-7-7C100,81.8,103.1,78.7,107,78.7z M10,84.7c0-3.3,2.6-5.7,5.8-5.7h28.4c3.2,0,5.8,2.4,5.8,5.7v2c0,3.3-2.7,6.3-5.8,6.3   H15.8c-3.2,0-5.8-3-5.8-6.3V84.7z" fill="#f5a200" data-original="#000000" style=""/>
</g>
<g xmlns="http://www.w3.org/2000/svg">
</g>
<g xmlns="http://www.w3.org/2000/svg">
</g>
<g xmlns="http://www.w3.org/2000/svg">
</g>
<g xmlns="http://www.w3.org/2000/svg">
</g>
<g xmlns="http://www.w3.org/2000/svg">
</g>
<g xmlns="http://www.w3.org/2000/svg">
</g>
<g xmlns="http://www.w3.org/2000/svg">
</g>
<g xmlns="http://www.w3.org/2000/svg">
</g>
<g xmlns="http://www.w3.org/2000/svg">
</g>
<g xmlns="http://www.w3.org/2000/svg">
</g>
<g xmlns="http://www.w3.org/2000/svg">
</g>
<g xmlns="http://www.w3.org/2000/svg">
</g>
<g xmlns="http://www.w3.org/2000/svg">
</g>
<g xmlns="http://www.w3.org/2000/svg">
</g>
<g xmlns="http://www.w3.org/2000/svg">
</g>
</g></svg>
