<?xml version="1.0"?>
<svg xmlns="http://www.w3.org/2000/svg" xmlns:xlink="http://www.w3.org/1999/xlink" xmlns:svgjs="http://svgjs.com/svgjs" version="1.1" width="512" height="512" x="0" y="0" viewBox="0 0 58 58" style="enable-background:new 0 0 512 512" xml:space="preserve" class=""><g>
<g xmlns="http://www.w3.org/2000/svg" id="XMLID_69_">
	<path id="XMLID_115_" style="" d="M54.783,50H3.217C1.44,50,0,48.56,0,46.783V11.217C0,9.44,1.44,8,3.217,8h51.566   C56.56,8,58,9.44,58,11.217v35.566C58,48.56,56.56,50,54.783,50" fill="#ffffff" data-original="#f0c41b" class=""/>
	<rect id="XMLID_114_" y="13" style="" width="58" height="8" fill="#000000" data-original="#806f5e" class=""/>
	<path id="XMLID_113_" style="" d="M15,28H6c-0.552,0-1-0.448-1-1s0.448-1,1-1h9c0.552,0,1,0.448,1,1S15.552,28,15,28" fill="#f7d963" data-original="#f9eab0" class=""/>
	<path id="XMLID_112_" style="" d="M28,28h-9c-0.552,0-1-0.448-1-1s0.448-1,1-1h9c0.552,0,1,0.448,1,1S28.552,28,28,28   " fill="#f7d963" data-original="#f9eab0" class=""/>
	<path id="XMLID_111_" style="" d="M7,33H6c-0.552,0-1-0.448-1-1s0.448-1,1-1h1c0.552,0,1,0.448,1,1S7.552,33,7,33" fill="#f7d963" data-original="#f9eab0" class=""/>
	<path id="XMLID_110_" style="" d="M13,33h-2c-0.552,0-1-0.448-1-1s0.448-1,1-1h2c0.552,0,1,0.448,1,1S13.552,33,13,33   " fill="#f7d963" data-original="#f9eab0" class=""/>
	<path id="XMLID_109_" style="" d="M18,33h-1c-0.552,0-1-0.448-1-1s0.448-1,1-1h1c0.552,0,1,0.448,1,1S18.552,33,18,33   " fill="#f7d963" data-original="#f9eab0" class=""/>
	<path id="XMLID_108_" style="" d="M24,33h-2c-0.552,0-1-0.448-1-1s0.448-1,1-1h2c0.552,0,1,0.448,1,1S24.552,33,24,33   " fill="#f7d963" data-original="#f9eab0" class=""/>
	<path id="XMLID_107_" style="" d="M28,33c-0.26,0-0.52-0.11-0.71-0.29C27.11,32.52,27,32.27,27,32   c0-0.26,0.11-0.52,0.29-0.71c0.37-0.37,1.04-0.37,1.42,0C28.89,31.48,29,31.74,29,32s-0.11,0.52-0.29,0.71   C28.52,32.89,28.26,33,28,33" fill="#f7d963" data-original="#f9eab0" class=""/>
	<path id="XMLID_106_" style="" d="M46,39c0,3.314-2.686,6-6,6s-6-2.686-6-6s2.686-6,6-6S46,35.686,46,39" fill="#db2215" data-original="#db2215" class=""/>
	<path id="XMLID_105_" style="" d="M53,39c0,3.314-2.686,6-6,6s-6-2.686-6-6s2.686-6,6-6S53,35.686,53,39" fill="#245ea9" data-original="#245ea9" class=""/>
</g>
<g xmlns="http://www.w3.org/2000/svg">
</g>
<g xmlns="http://www.w3.org/2000/svg">
</g>
<g xmlns="http://www.w3.org/2000/svg">
</g>
<g xmlns="http://www.w3.org/2000/svg">
</g>
<g xmlns="http://www.w3.org/2000/svg">
</g>
<g xmlns="http://www.w3.org/2000/svg">
</g>
<g xmlns="http://www.w3.org/2000/svg">
</g>
<g xmlns="http://www.w3.org/2000/svg">
</g>
<g xmlns="http://www.w3.org/2000/svg">
</g>
<g xmlns="http://www.w3.org/2000/svg">
</g>
<g xmlns="http://www.w3.org/2000/svg">
</g>
<g xmlns="http://www.w3.org/2000/svg">
</g>
<g xmlns="http://www.w3.org/2000/svg">
</g>
<g xmlns="http://www.w3.org/2000/svg">
</g>
<g xmlns="http://www.w3.org/2000/svg">
</g>
</g></svg>
