<svg id="Layer_3" enable-background="new 0 0 64 64" height="512" viewBox="0 0 64 64" width="512" xmlns="http://www.w3.org/2000/svg"><g><path d="m6 28v-18h12v18" fill="#a8b0bc"/><path d="m6 26.902c5.375-3.114 9-8.914 9-15.572 0-.449-.035-.889-.067-1.329h-8.933z" fill="#c1c8d1"/><path d="m54 20h-28c-.552 0-1-.448-1-1v-16c0-.552.448-1 1-1h28c.552 0 1 .448 1 1v16c0 .552-.448 1-1 1z" fill="#d5cec2"/><path d="m25 3v16c0 .552.448 1 1 1h10.487c4.616-4.207 7.513-10.267 7.513-17.004 0-.334-.011-.665-.025-.996h-17.975c-.552 0-1 .448-1 1z" fill="#e7e4dd"/><path d="m6 44h12v10h-12z" fill="#c18e59"/><path d="m6 16h12v6h-12z" fill="#758190"/><path d="m55 16v3c0 .552-.448 1-1 1h-28c-.552 0-1-.448-1-1v-3z" fill="#758190"/><path d="m48 28c0-1.194-.764-2.255-1.897-2.632l-2.051-.684c-1.226-.409-2.052-1.555-2.052-2.846v-1.838h-4v1.838c0 1.291-.826 2.438-2.051 2.846l-2.051.684c-1.134.377-1.898 1.438-1.898 2.632z" fill="#a8b0bc"/><path d="m2 28h60v6h-60z" fill="#c18e59"/><path d="m45 58c-1.921-1.921-3-4.526-3-7.243v-1.757h-4v1.757c0 2.717-1.079 5.322-3 7.243z" fill="#d5cec2"/><path d="m6 34h12v10h-12z" fill="#442518"/><path d="m2 34h4v28h-4z" fill="#674025"/><path d="m2 34h2v28h-2z" fill="#976947"/><path d="m18 34h4v28h-4z" fill="#674025"/><path d="m58 34h4v28h-4z" fill="#674025"/><g><path d="m10 36.999h3.999v1.999h-3.999z" fill="#c18e59"/></g><g><path d="m10 46.999h3.999v1.999h-3.999z" fill="#674025"/></g><path d="m49 49h-20v-2c0-2.209 1.791-4 4-4h18v4c0 1.105-.895 2-2 2z" fill="#a8b0bc"/><path d="m51 43v-19c-2.209 0-4 1.791-4 4v15" fill="#758190"/><path d="m47 28v15h2v-18.445c-1.191.693-2 1.968-2 3.445z" fill="#8892a0"/><path d="m47 62h-14c-1.105 0-2-.895-2-2 0-1.105.895-2 2-2h14c1.105 0 2 .895 2 2 0 1.105-.895 2-2 2z" fill="#758190"/><path d="m18 34h2v28h-2z" fill="#976947"/><path d="m58 34h2v28h-2z" fill="#976947"/><path d="m25 16v3c0 .552.448 1 1 1h10.487c1.309-1.193 2.477-2.536 3.482-4-7.484 0-14.969 0-14.969 0z" fill="#8892a0"/><path d="m14.366 16h-8.366v6h5.472c1.314-1.779 2.305-3.804 2.894-6z" fill="#8892a0"/><g><path d="m63 27.999c0-.553-.448-1-1-1h-10.002v-3.001c0-.265-.104-.52-.293-.707-.188-.188-.441-.293-.706-.293-.001 0-.001 0-.001.001-1.529.001-2.883.706-3.801 1.792-.245-.151-.503-.281-.779-.373l-2.052-.684c-.817-.272-1.366-1.035-1.366-1.898v-.838h10.999c1.104 0 2-.896 2-2v-15.999c0-1.104-.896-2-2-2h-27.999c-1.104 0-2 .896-2 2v15.999c0 1.104.896 2 2 2h11v.838c0 .863-.55 1.626-1.368 1.898l-2.053.684c-1.216.406-2.109 1.389-2.436 2.581h-12.144v-17c0-.553-.447-1-1-1h-11.999c-.553 0-1 .447-1 1v17h-3c-.553 0-1 .447-1 1v5.999s0 0 0 0v27.999c0 .553.447 1 1 1h3.999c.553 0 1-.447 1-1v-7h10.001v7c0 .553.447 1 1 1h3.999c.553 0 1-.447 1-1v-27h23.001v7.001h-13.001c-1.336 0-2.592.52-3.536 1.464s-1.464 2.2-1.463 3.535v2c0 .553.447 1 1 1h7.999v.758c0 2.336-.87 4.534-2.442 6.243h-1.559c-1.653.001-2.998 1.347-2.998 3.002 0 1.653 1.345 2.998 2.998 2.998h14.001c1.654 0 3-1.346 3-2.999 0-1.654-1.346-3-3-3h-1.558c-1.572-1.709-2.442-3.907-2.442-6.243v-.758h6.001c1.653 0 3-1.346 3-3v-3.999c0-.002-.001-.003-.001-.005v-7.996h5.001v27c0 .553.447 1 1 1h3.999c.553 0 1-.447 1-1v-27.995c0-.002.001-.003.001-.005zm-9.001-25 .001 12h-28v-12zm-27.999 13.999h28.001v2h-28.001zm8.212 9.317 2.052-.684c1.636-.545 2.736-2.069 2.736-3.795v-.838h2v.838c0 1.726 1.099 3.251 2.734 3.796l2.052.684c.163.054.316.131.455.229-.047.152-.108.297-.14.455h-12.787c.214-.313.521-.559.898-.685zm-17.213-5.316h-9.999v-4.001h9.999zm0-10v4h-9.999v-4zm-9.999 11.999h9.999v4.001h-9.999zm-2.001 38h-1.999v-25.999h1.999zm2-7.999v-8.001h10.001v8.001zm14 7.999h-1.999v-25.999h1.999zm-3.999-17.999h-10.001v-8.001h10.001zm-14-10.001v-3.999h43v3.999zm45-4.999c0-1.304.835-2.416 1.999-2.829v16.829h-1.999zm-.001 32.001c0 .551-.448.998-1 .998h-14.001c-.551 0-.998-.448-.998-.999 0-.552.447-1 .998-1h14.001c.552 0 1 .448 1 1.001zm-5.111-3.001h-5.778c1.228-1.833 1.889-3.987 1.889-6.243v-.758h2v.758c0 2.256.66 4.411 1.889 6.243zm7.112-10.001c0 .552-.449 1-1 1h-19v-1c-.001-.801.311-1.555.878-2.121.566-.566 1.319-.878 2.121-.878h17.001zm1.998-17.999h9.002v3.999h-9.001zm9.001 31.999h-1.999v-25.999h1.999z"/><path d="m10 36.999h3.999v1.999h-3.999z"/><path d="m10 46.999h3.999v1.999h-3.999z"/></g></g></svg>