<?xml version="1.0" encoding="iso-8859-1"?>
<!-- Generator: Adobe Illustrator 19.0.0, SVG Export Plug-In . SVG Version: 6.00 Build 0)  -->
<svg version="1.1" id="Capa_1" xmlns="http://www.w3.org/2000/svg" xmlns:xlink="http://www.w3.org/1999/xlink" x="0px" y="0px"
	 viewBox="0 0 512.01 512.01" style="enable-background:new 0 0 512.01 512.01;" xml:space="preserve">
<g>
	<g>
		<path d="M503.562,161.925c-5.184-2.784-11.488-2.496-16.448,0.8L352.01,252.773v-76.736c0-5.92-3.264-11.328-8.448-14.112
			c-5.184-2.784-11.488-2.496-16.448,0.8l-151.68,101.088l-14.24-199.808h14.816c8.832,0,16-7.168,16-16v-32c0-8.832-7.168-16-16-16
			h-160c-8.832,0-16,7.168-16,16v32c0,8.832,7.168,16,16,16h14.816L0.042,494.885c-0.32,4.416,1.216,8.768,4.256,12.032
			c3.04,3.232,7.264,5.088,11.712,5.088h480c8.832,0,16-7.168,16-16V176.037C512.01,170.117,508.746,164.709,503.562,161.925z
			 M288.01,384.005h-64v-64h64V384.005z M448.01,384.005h-64v-64h64V384.005z"/>
	</g>
</g>
<g>
</g>
<g>
</g>
<g>
</g>
<g>
</g>
<g>
</g>
<g>
</g>
<g>
</g>
<g>
</g>
<g>
</g>
<g>
</g>
<g>
</g>
<g>
</g>
<g>
</g>
<g>
</g>
<g>
</g>
</svg>
