<?xml version="1.0"?>
<svg xmlns="http://www.w3.org/2000/svg" xmlns:xlink="http://www.w3.org/1999/xlink" xmlns:svgjs="http://svgjs.com/svgjs" version="1.1" width="512" height="512" x="0" y="0" viewBox="0 0 62.418 62.418" style="enable-background:new 0 0 512 512" xml:space="preserve" class=""><g transform="matrix(-1,1.2246467991473532e-16,-1.2246467991473532e-16,-1,62.41745567321779,62.417975902557366)">
<g xmlns="http://www.w3.org/2000/svg">
	<path style="" d="M41.454,39.743c0.002-0.017,0.002-0.031,0-0.048c-0.025-1.944-0.031-3.889-0.008-5.837   c0.096-8.176,1.093-16.319,1.183-24.479c0.002-0.172-0.089-0.298-0.211-0.378c-0.097-0.35-0.416-0.641-0.828-0.493   c-0.46,0.165-0.915,0.321-1.369,0.473c0.032-0.707,0.033-1.413,0.102-2.12c0.072-0.741,0.285-1.457-0.073-2.137   c-0.021-0.039-0.056-0.059-0.083-0.09c0.037-0.389,0.012-0.769-0.17-1.06c-0.017-0.081-0.044-0.163-0.099-0.247   C36.68-1.585,27.501-0.154,23.075,1.89c-0.343,0.158-0.415,0.505-0.33,0.818c-0.439,1.627-0.423,3.44-0.383,5.137   c-0.137-0.055-0.285-0.046-0.417,0.014c-0.319-0.141-0.743-0.054-0.8,0.358c-2.09,15.255-1.469,31.214-0.122,46.508   c0.02,0.226,0.122,0.395,0.258,0.518c-0.013,0.711-0.167,1.439-0.112,2.14c0.036,0.454,0.43,0.7,0.79,0.661   c0.405,2.066,5.1,3.747,6.444,4.047c4.269,0.951,9.554-0.205,12.961-3.044c0.359,0.03,0.712-0.175,0.712-0.639   c0.092-0.173,0.076-0.383-0.017-0.551C41.802,51.814,41.532,45.785,41.454,39.743z M38.522,3.847   c-2.317,0.573-4.493,1.216-6.954,1.056c-2.438-0.158-4.554-0.968-6.647-2.051C28.965,1.594,35.824,0.358,38.522,3.847z    M23.323,8.513c0.261-1.561,0.573-3.254,0.519-4.871c4.017,3.115,10.735,4.117,15.126,1.389c0.002,0.01,0.003,0.021,0.004,0.031   c-0.263,0.534-0.27,1.216-0.284,1.799c-0.02,0.854,0.026,1.703,0.236,2.53c-2.069,0.623-4.143,1.059-6.406,1.115   c-2.65,0.066-6.89-0.08-9.242-1.873C23.295,8.597,23.315,8.561,23.323,8.513z M23.003,57.25c0.109-0.29-0.104-0.495-0.35-0.536   c0.028-0.524-0.034-1.063-0.17-1.595c0.059-0.108,0.099-0.233,0.088-0.393c-0.118-1.705-0.208-3.406-0.288-5.106   c0.638,0.442,1.313,0.838,2.016,1.187c-0.607,2.331-0.151,5.252,0.117,7.595c0.043,0.374,0.625,0.39,0.598,0   c-0.097-1.375-0.151-2.754-0.163-4.133c-0.009-1.068,0.106-2.152-0.004-3.212c0.219,0.099,0.442,0.189,0.665,0.279   c-0.097,2.78,0.211,5.659,0.625,8.413C24.175,59.17,22.592,58.34,23.003,57.25z M26.96,59.971   c-0.023-2.754-0.175-5.623-0.679-8.348c0.676,0.236,1.372,0.418,2.074,0.572c0.026,2.726,0.28,5.463,0.515,8.175   C28.25,60.261,27.599,60.13,26.96,59.971z M29.59,60.488c0.046-2.678,0.114-5.384-0.031-8.065c0.438,0.065,0.879,0.113,1.32,0.146   c-0.386,2.51,0.104,5.329,0.255,7.817c0.009,0.143,0.078,0.243,0.17,0.307C30.846,60.656,30.261,60.59,29.59,60.488z    M32.039,60.726c-0.07,0.003-0.177-0.001-0.282-0.005c0.11-0.059,0.192-0.167,0.187-0.335c-0.076-2.484,0.155-5.335-0.449-7.794   c0.665,0.026,1.33,0.009,1.991-0.042c0.088,1.001,0.256,2.006,0.337,2.997c0.124,1.5,0.169,3.005,0.26,4.507   c0.013,0.213,0.168,0.317,0.326,0.325C33.654,60.565,32.871,60.692,32.039,60.726z M36.354,59.719c0,0.012,0.006,0.019,0.007,0.03   c-0.591,0.223-1.189,0.429-1.808,0.589c0.11-0.045,0.205-0.126,0.215-0.284c0.151-2.35,0.244-5.169-0.249-7.616   c0.642-0.09,1.273-0.231,1.897-0.397C35.966,54.513,36.265,57.225,36.354,59.719z M37.408,59.331   c0.104-2.424,0.358-5.027-0.095-7.4c-0.009-0.05-0.029-0.092-0.053-0.13c0.347-0.115,0.684-0.256,1.021-0.396   c-0.474,2.065-0.099,4.6,0.002,6.648c0.037,0.757,1.14,0.759,1.178,0c0.109-2.213,0.549-4.991-0.114-7.131   c-0.002-0.007-0.009-0.009-0.012-0.017c0.21-0.11,0.426-0.206,0.63-0.327c0.185,2.487,0.402,4.948,0.651,7.363   C39.519,58.391,38.468,58.883,37.408,59.331z M40.86,14.047c-1.905,0-3.853,0.416-5.736,0.682   c-0.311,0.044-0.241,0.582,0.075,0.552c1.844-0.175,3.762-0.233,5.573-0.643c-0.36,2.461-0.65,4.955-0.86,7.477   c-1.902,0.024-3.811,0.257-5.703,0.413c-0.329,0.027-0.338,0.534,0,0.52c1.88-0.079,3.784-0.091,5.659-0.292   c-0.088,1.117-0.171,2.235-0.232,3.359c-2.459,0.017-5.024,0.47-7.428,0.731c-0.303,0.033-0.317,0.502,0,0.485   c2.394-0.124,4.976-0.093,7.392-0.454c-0.073,1.474-0.13,2.951-0.162,4.432c-0.994,0.121-1.995,0.374-2.956,0.556   c-0.257,0.049-0.203,0.492,0.063,0.463c0.936-0.102,1.929-0.154,2.883-0.313c-0.015,0.838-0.028,1.675-0.03,2.514   c-2.628,0.097-5.371,0.668-7.922,1.02c-0.311,0.043-0.241,0.58,0.075,0.552c2.531-0.222,5.286-0.281,7.841-0.755   c0.002,1.333,0.015,2.666,0.045,3.996c-1.41-0.025-2.842,0.073-4.231,0.092c-0.366,0.005-0.367,0.564,0,0.57   c1.395,0.019,2.834,0.118,4.251,0.092c0.018,0.676,0.029,1.354,0.053,2.028c-3.1,0.259-6.182,0.752-9.303,0.907   c-0.293,0.014-0.295,0.448,0,0.457c3,0.09,6.327,0.058,9.336-0.608c0.042,1.046,0.081,2.094,0.137,3.135   c-2.153-0.156-4.5,0.046-6.509,0.566c-0.126,0.033-0.101,0.229,0.031,0.228c2.159-0.025,4.35-0.042,6.517-0.105   c0.045,0.776,0.08,1.556,0.132,2.327c-0.05,0.007-0.096,0.004-0.149,0.024c-3.608,1.333-6.944,1.913-10.27,1.582   c-0.008-0.084-0.009-0.168-0.018-0.252c-0.069-0.663-1.03-0.692-1.055,0c-0.001,0.037,0.001,0.075,0,0.113   c-2.019-0.322-4.043-0.981-6.132-2.031C21.675,35.477,22.1,22.599,22.284,9.576c1.828,1.913,5.219,2.33,7.683,2.554   c3.954,0.359,8.004-0.314,11.569-2.067C41.282,11.376,41.064,12.708,40.86,14.047z" fill="#1d1d1b" data-original="#1d1d1b" class=""/>
	<path style="" d="M39.205,48.431c-1.987-0.005-4.022,0.253-5.997,0.465c-0.246,0.027-0.259,0.399,0,0.394   c1.982-0.039,4.03-0.042,5.997-0.297C39.553,48.948,39.579,48.432,39.205,48.431z" fill="#1d1d1b" data-original="#1d1d1b" class=""/>
	<path style="" d="M39.889,17.865c-1.139-0.026-2.328,0.246-3.454,0.401c-0.369,0.051-0.286,0.693,0.089,0.656   c1.135-0.111,2.346-0.124,3.452-0.415C40.337,18.412,40.255,17.873,39.889,17.865z" fill="#1d1d1b" data-original="#1d1d1b" class=""/>
</g>
<g xmlns="http://www.w3.org/2000/svg">
</g>
<g xmlns="http://www.w3.org/2000/svg">
</g>
<g xmlns="http://www.w3.org/2000/svg">
</g>
<g xmlns="http://www.w3.org/2000/svg">
</g>
<g xmlns="http://www.w3.org/2000/svg">
</g>
<g xmlns="http://www.w3.org/2000/svg">
</g>
<g xmlns="http://www.w3.org/2000/svg">
</g>
<g xmlns="http://www.w3.org/2000/svg">
</g>
<g xmlns="http://www.w3.org/2000/svg">
</g>
<g xmlns="http://www.w3.org/2000/svg">
</g>
<g xmlns="http://www.w3.org/2000/svg">
</g>
<g xmlns="http://www.w3.org/2000/svg">
</g>
<g xmlns="http://www.w3.org/2000/svg">
</g>
<g xmlns="http://www.w3.org/2000/svg">
</g>
<g xmlns="http://www.w3.org/2000/svg">
</g>
</g></svg>
