<?xml version="1.0" encoding="iso-8859-1"?>
<!-- Generator: Adobe Illustrator 19.0.0, SVG Export Plug-In . SVG Version: 6.00 Build 0)  -->
<svg version="1.1" id="Capa_1" xmlns="http://www.w3.org/2000/svg" xmlns:xlink="http://www.w3.org/1999/xlink" x="0px" y="0px"
	 viewBox="0 0 512 512" style="enable-background:new 0 0 512 512;" xml:space="preserve">
<rect x="116.8" y="10" style="fill:#5BE5EF;" width="278.4" height="336.77"/>
<rect x="59.55" y="404.07" style="fill:#F0514D;" width="392.89" height="97.93"/>
<rect x="26.01" y="346.77" style="fill:#E82852;" width="459.98" height="57.3"/>
<circle style="fill:#FEC872;" cx="451.63" cy="36.429" r="26.429"/>
<path d="M451.631,72.859c-20.088,0-36.43-16.342-36.43-36.43C415.201,16.342,431.543,0,451.631,0s36.43,16.342,36.43,36.429
	C488.06,56.517,471.719,72.859,451.631,72.859z M451.631,20c-9.06,0-16.43,7.37-16.43,16.429c0,9.06,7.37,16.43,16.43,16.43
	s16.43-7.37,16.43-16.43C468.06,27.37,460.69,20,451.631,20z"/>
<circle style="fill:#FCB653;" cx="451.63" cy="117.41" r="26.429"/>
<path d="M451.631,153.843c-20.088,0-36.43-16.342-36.43-36.429s16.342-36.43,36.43-36.43c20.088,0,36.43,16.342,36.43,36.43
	C488.06,137.501,471.719,153.843,451.631,153.843z M451.631,100.984c-9.06,0-16.43,7.37-16.43,16.43
	c0,9.059,7.37,16.429,16.43,16.429s16.43-7.37,16.43-16.429C468.06,108.355,460.69,100.984,451.631,100.984z"/>
<circle style="fill:#FEC872;" cx="451.63" cy="198.4" r="26.429"/>
<path d="M451.631,234.828c-20.088,0-36.43-16.342-36.43-36.429s16.342-36.43,36.43-36.43c20.088,0,36.43,16.342,36.43,36.43
	C488.06,218.485,471.719,234.828,451.631,234.828z M451.631,181.969c-9.06,0-16.43,7.37-16.43,16.43
	c0,9.059,7.37,16.429,16.43,16.429s16.43-7.37,16.43-16.429C468.06,189.339,460.69,181.969,451.631,181.969z"/>
<circle style="fill:#FCB653;" cx="451.63" cy="279.38" r="26.429"/>
<path d="M451.631,315.812c-20.088,0-36.43-16.342-36.43-36.429s16.342-36.429,36.43-36.429c20.088,0,36.43,16.342,36.43,36.429
	C488.06,299.47,471.719,315.812,451.631,315.812z M451.631,262.954c-9.06,0-16.43,7.37-16.43,16.429s7.37,16.429,16.43,16.429
	s16.43-7.37,16.43-16.429C468.06,270.324,460.69,262.954,451.631,262.954z"/>
<circle style="fill:#FCB653;" cx="60.37" cy="36.429" r="26.429"/>
<path d="M60.369,72.859c-20.088,0-36.43-16.342-36.43-36.43C23.94,16.342,40.281,0,60.369,0s36.43,16.342,36.43,36.429
	C96.799,56.517,80.457,72.859,60.369,72.859z M60.369,20c-9.059,0-16.43,7.37-16.43,16.429c0,9.06,7.37,16.43,16.43,16.43
	s16.43-7.37,16.43-16.43C76.799,27.37,69.429,20,60.369,20z"/>
<circle style="fill:#FEC872;" cx="60.37" cy="117.41" r="26.429"/>
<path d="M60.369,153.843c-20.088,0-36.43-16.342-36.43-36.429s16.342-36.43,36.43-36.43s36.43,16.342,36.43,36.43
	C96.799,137.501,80.457,153.843,60.369,153.843z M60.369,100.984c-9.059,0-16.43,7.37-16.43,16.43c0,9.059,7.37,16.429,16.43,16.429
	s16.43-7.37,16.43-16.429C76.799,108.355,69.429,100.984,60.369,100.984z"/>
<circle style="fill:#FCB653;" cx="60.37" cy="198.4" r="26.429"/>
<path d="M60.369,234.828c-20.088,0-36.43-16.342-36.43-36.429s16.342-36.43,36.43-36.43s36.43,16.342,36.43,36.43
	C96.799,218.485,80.457,234.828,60.369,234.828z M60.369,181.969c-9.059,0-16.43,7.37-16.43,16.43c0,9.059,7.37,16.429,16.43,16.429
	s16.43-7.37,16.43-16.429C76.799,189.339,69.429,181.969,60.369,181.969z"/>
<circle style="fill:#FEC872;" cx="60.37" cy="279.38" r="26.429"/>
<path d="M60.369,315.812c-20.088,0-36.43-16.342-36.43-36.429s16.342-36.429,36.43-36.429s36.43,16.342,36.43,36.429
	C96.799,299.47,80.457,315.812,60.369,315.812z M60.369,262.954c-9.059,0-16.43,7.37-16.43,16.429s7.37,16.429,16.43,16.429
	s16.43-7.37,16.43-16.429C76.799,270.324,69.429,262.954,60.369,262.954z"/>
<polygon style="fill:#29B7E2;" points="354.109,10 116.8,247.32 116.8,136.48 243.27,10 "/>
<path d="M339.93,100.98c-0.649,0-1.31-0.06-1.95-0.19c-0.64-0.13-1.27-0.32-1.87-0.57c-0.609-0.25-1.19-0.56-1.729-0.92
	c-0.55-0.37-1.061-0.78-1.521-1.25c-0.46-0.46-0.88-0.97-1.25-1.51c-0.35-0.55-0.659-1.13-0.909-1.73c-0.25-0.6-0.45-1.23-0.57-1.87
	c-0.13-0.65-0.2-1.3-0.2-1.96c0-0.65,0.07-1.3,0.2-1.95c0.12-0.64,0.32-1.27,0.57-1.87c0.25-0.6,0.56-1.18,0.909-1.73
	c0.37-0.54,0.79-1.06,1.25-1.52s0.971-0.88,1.521-1.24c0.54-0.36,1.12-0.67,1.729-0.92c0.601-0.25,1.23-0.44,1.87-0.57
	c1.29-0.26,2.62-0.26,3.9,0c0.64,0.13,1.27,0.32,1.88,0.57c0.6,0.25,1.18,0.56,1.72,0.92c0.551,0.36,1.061,0.78,1.521,1.24
	s0.88,0.98,1.24,1.52c0.369,0.55,0.67,1.13,0.92,1.73c0.25,0.6,0.449,1.23,0.569,1.87c0.13,0.65,0.2,1.3,0.2,1.95
	c0,0.66-0.07,1.31-0.2,1.96c-0.12,0.64-0.319,1.27-0.569,1.87c-0.25,0.6-0.551,1.18-0.92,1.73c-0.36,0.54-0.78,1.05-1.24,1.51
	c-0.46,0.47-0.97,0.88-1.521,1.25c-0.54,0.36-1.12,0.67-1.72,0.92c-0.61,0.25-1.24,0.44-1.88,0.57
	C341.24,100.92,340.579,100.98,339.93,100.98z"/>
<path d="M299.835,446.648h-87.67c-5.522,0-10-4.477-10-10s4.478-10,10-10h87.67c5.522,0,10,4.477,10,10
	C309.835,442.171,305.357,446.648,299.835,446.648z"/>
<path d="M485.989,336.771H405.2V10c0-5.523-4.478-10-10-10H116.8c-5.522,0-10,4.477-10,10v326.771H26.011c-5.522,0-10,4.477-10,10
	v57.298c0,5.523,4.478,10,10,10h23.542V502c0,5.523,4.478,10,10,10h392.895c5.522,0,10-4.477,10-10v-87.932h23.542
	c5.522,0,10-4.477,10-10V346.77C495.989,341.248,491.512,336.771,485.989,336.771z M329.969,20L126.8,223.177v-82.555L247.412,20
	H329.969z M219.129,20L126.8,112.337V20H219.129z M126.8,318.257l190.504-190.503c3.905-3.905,3.905-10.237,0-14.143
	c-3.906-3.904-10.236-3.904-14.143,0L126.8,289.972v-38.51L358.253,20H385.2v316.771H126.8V318.257z M69.553,414.068h38.981V492
	H69.553V414.068z M385.2,414.068V492H128.533v-77.932H385.2z M442.447,492H405.2v-77.932h37.247L442.447,492L442.447,492z
	 M475.989,394.068H36.011V356.77H475.99L475.989,394.068L475.989,394.068z"/>
<g>
</g>
<g>
</g>
<g>
</g>
<g>
</g>
<g>
</g>
<g>
</g>
<g>
</g>
<g>
</g>
<g>
</g>
<g>
</g>
<g>
</g>
<g>
</g>
<g>
</g>
<g>
</g>
<g>
</g>
</svg>
