<svg height="446pt" viewBox="-39 0 446 446.936" width="446pt" xmlns="http://www.w3.org/2000/svg"><path d="m268.117188 158.9375h-183.296876l-65.105468 100.613281c-12.574219 19.414063-19.261719 42.054688-19.246094 65.183594v2.203125c.074219 66.242188 53.757812 119.921875 120 120h112c66.242188-.078125 119.925781-53.757812 120-120v-2.203125c.011719-23.128906-6.671875-45.769531-19.25-65.183594zm-91.648438 144c24.84375.140625 45.472656 19.222656 47.554688 43.980469 2.078124 24.761719-15.082032 47.011719-39.554688 51.296875v16.722656h-16v-16.722656c-23.066406-3.917969-39.957031-23.882813-40-47.277344h16c0 17.671875 14.324219 32 32 32 17.671875 0 32-14.328125 32-32 0-17.675781-14.328125-32-32-32-24.847656-.144531-45.476562-19.226562-47.554688-43.984375-2.078124-24.757813 15.082032-47.011719 39.554688-51.296875v-16.71875h16v16.71875c23.066406 3.917969 39.957031 23.882812 40 47.28125h-16c0-17.675781-14.328125-32-32-32-17.675781 0-32 14.324219-32 32 0 17.671875 14.324219 32 32 32zm0 0"/><path d="m258.21875 110.9375 26.121094-104.472656-14.152344 7.535156c-2.351562 1.25-5.167969 1.25-7.519531 0l-26.273438-14-26.230469 13.992188c-2.351562 1.265624-5.179687 1.265624-7.527343 0l-26.226563-13.992188-26.214844 13.992188c-2.351562 1.253906-5.175781 1.253906-7.527343 0l-26.199219-13.992188-26.25 13.992188c-2.347656 1.265624-5.175781 1.265624-7.527344 0l-12.757812-6.808594 32.414062 103.753906zm0 0"/><path d="m359.035156 111.0625-62.800781 11.417969 49.890625-49.886719c3.03125-3.140625 2.988281-8.128906-.097656-11.214844-3.085938-3.085937-8.078125-3.128906-11.214844-.097656l-65.65625 65.65625h-188.6875c-4.417969 0-8 3.582031-8 8s3.582031 8 8 8h192c.480469 0 .957031-.042969 1.429688-.128906l88-16c4.347656-.792969 7.234374-4.957032 6.441406-9.304688-.789063-4.347656-4.957032-7.230468-9.304688-6.441406zm0 0"/></svg>