<?xml version="1.0"?>
<svg xmlns="http://www.w3.org/2000/svg" xmlns:xlink="http://www.w3.org/1999/xlink" xmlns:svgjs="http://svgjs.com/svgjs" version="1.1" width="512" height="512" x="0" y="0" viewBox="0 0 512 512" style="enable-background:new 0 0 512 512" xml:space="preserve" class=""><g><g xmlns="http://www.w3.org/2000/svg"><g fill="#548eb5"><path d="m116.365 160.412h-44.883v-100.36c0-8.284 6.716-15 15-15h29.883z" fill="#ffffff" data-original="#548eb5" style="" class=""/><path d="m440.518 160.412h-44.883v-115.36h29.883c8.284 0 15 6.716 15 15z" fill="#ffffff" data-original="#548eb5" style="" class=""/><path d="m503.853 409.761h-495.706v-219.349c0-16.569 13.431-30 30-30h435.706c16.569 0 30 13.431 30 30z" fill="#ffffff" data-original="#548eb5" style="" class=""/></g><path d="m87.939 160.411c-16.527 0-29.922 13.395-29.922 29.922v219.427h-49.87v-219.427c0-16.527 13.395-29.922 29.922-29.922z" fill="#fff113" data-original="#447d99" style="" class=""/><path d="m440.518 369.865h-369.036v-74.766c0-8.284 6.716-15 15-15h339.036c8.284 0 15 6.716 15 15z" fill="#ffffff" data-original="#548eb5" style="" class=""/><path d="m116.365 324.982h279.271v179.537h-279.271z" fill="#def3fb" data-original="#eefaff" style="" class=""/><path d="m395.635 324.981v19.948h-222.419c-3.856 0-6.982 3.126-6.982 6.982v152.611h-49.87v-179.541z" fill="#dff1f7" data-original="#dff1f7" style="" class=""/><path d="m116.365 7.484h279.271v152.928h-279.271z" fill="#def3fb" data-original="#eefaff" style="" class=""/><path d="m395.635 140.463v19.948h-279.27v-152.931h49.87v126.001c0 3.856 3.126 6.982 6.982 6.982z" fill="#dff1f7" data-original="#dff1f7" style="" class=""/><path d="m71.482 200.308h39.896v39.896h-39.896z" fill="#fdfdfd" data-original="#01d0fb" style="" class=""/><path d="m151.273 200.308h39.896v39.896h-39.896z" fill="#ffffff" data-original="#f37c7b" style="" class=""/><g><path d="m473.931 152.931h-25.932v-92.918c0-12.374-10.067-22.441-22.441-22.441h-22.441v-30.092c0-4.132-3.349-7.48-7.48-7.48h-279.272c-4.131 0-7.48 3.349-7.48 7.48v30.091h-22.442c-11.22 0-22.441 11.27-22.441 22.441v92.918h-25.933c-20.624 0-37.402 16.778-37.402 37.402v219.428c0 4.132 3.349 7.48 7.48 7.48h100.737v87.279c0 4.132 3.349 7.48 7.48 7.48h279.271c4.131 0 7.48-3.349 7.48-7.48v-87.279h100.737c4.131 0 7.48-3.349 7.48-7.48v-219.427c.001-20.624-16.777-37.402-37.401-37.402zm-48.374-100.398c4.125 0 7.48 3.355 7.48 7.48v92.918h-29.922v-100.398zm-346.595 279.93h29.922v29.921h-29.922zm309.193 164.576h-264.31v-164.576h264.31zm44.883-164.576v29.921h-29.922v-29.921zm63.334 69.817h-93.257v-24.935h37.402c4.131 0 7.48-3.349 7.48-7.48v-74.805c0-12.374-10.067-22.441-22.441-22.441h-13.625c-4.131 0-7.48 3.349-7.48 7.48 0 4.132 3.349 7.48 7.48 7.48h13.625c4.125 0 7.48 3.355 7.48 7.48v22.442h-354.074v-22.441c0-4.125 3.355-7.48 7.48-7.48h292.895c4.131 0 7.48-3.349 7.48-7.48 0-4.132-3.349-7.48-7.48-7.48h-292.894c-12.374 0-22.441 10.067-22.441 22.441v74.805c0 4.132 3.349 7.48 7.48 7.48h37.402v24.935h-93.256v-211.948c0-12.374 10.067-22.441 22.441-22.441h167.224c4.131 0 7.48-3.349 7.48-7.48s-3.349-7.48-7.48-7.48h-81.447v-49.86c0-4.132-3.349-7.48-7.48-7.48s-7.48 3.349-7.48 7.48v49.86h-29.924v-92.919c-.083-4.197 3.034-7.356 7.48-7.48h22.441v17.943c0 4.132 3.349 7.48 7.48 7.48s7.48-3.349 7.48-7.48v-55.515h264.31v137.97h-150.266c-4.131 0-7.48 3.349-7.48 7.48s3.349 7.48 7.48 7.48h236.044c12.374 0 22.441 10.067 22.441 22.441z" fill="#000000" data-original="#000000" style="" class=""/><path d="m352.415 362.385h-192.83c-4.131 0-7.48 3.349-7.48 7.48 0 4.132 3.349 7.48 7.48 7.48h192.83c4.131 0 7.48-3.349 7.48-7.48 0-4.132-3.349-7.48-7.48-7.48z" fill="#000000" data-original="#000000" style="" class=""/><path d="m352.415 402.281h-192.83c-4.131 0-7.48 3.349-7.48 7.48 0 4.132 3.349 7.48 7.48 7.48h192.83c4.131 0 7.48-3.349 7.48-7.48 0-4.132-3.349-7.48-7.48-7.48z" fill="#000000" data-original="#000000" style="" class=""/><path d="m352.415 442.176h-192.83c-4.131 0-7.48 3.349-7.48 7.48 0 4.132 3.349 7.48 7.48 7.48h192.83c4.131 0 7.48-3.349 7.48-7.48s-3.349-7.48-7.48-7.48z" fill="#000000" data-original="#000000" style="" class=""/><path d="m111.378 192.828h-39.896c-4.131 0-7.48 3.349-7.48 7.48v39.896c0 4.132 3.349 7.48 7.48 7.48h39.896c4.131 0 7.48-3.349 7.48-7.48v-39.896c0-4.132-3.349-7.48-7.48-7.48zm-7.481 39.895h-24.935v-24.935h24.935z" fill="#000000" data-original="#000000" style="" class=""/><path d="m191.169 192.828h-39.896c-4.131 0-7.48 3.349-7.48 7.48v39.896c0 4.132 3.349 7.48 7.48 7.48h39.896c4.131 0 7.48-3.349 7.48-7.48v-39.896c.001-4.132-3.348-7.48-7.48-7.48zm-7.48 39.895h-24.935v-24.935h24.935z" fill="#000000" data-original="#000000" style="" class=""/></g></g></g></svg>
