<?xml version="1.0"?>
<svg xmlns="http://www.w3.org/2000/svg" xmlns:xlink="http://www.w3.org/1999/xlink" xmlns:svgjs="http://svgjs.com/svgjs" version="1.1" width="512" height="512" x="0" y="0" viewBox="0 0 53.709 53.709" style="enable-background:new 0 0 512 512" xml:space="preserve"><g>
<g xmlns="http://www.w3.org/2000/svg">
	<path d="M10.949,53.709h31.809c2.209,0,4-1.791,4-4V29.708H6.949v20.001C6.949,51.918,8.74,53.709,10.949,53.709z" fill="#f74e4e" data-original="#000000" style=""/>
	<path d="M4.463,22.291v5.369h44.783v-5.369c0-2.209-1.791-4-4-4H33.537c5.561,0,13.557-5.397,11.805-11.12   C43.879,2.39,39.488-0.028,35.001,0c-6.335,0.036-7.977,13.317-7.977,13.317h-0.17c0,0-1.641-13.281-7.977-13.317   C14.389-0.028,9.999,2.39,8.536,7.171c-1.753,5.723,6.244,11.12,11.807,11.12H8.463C6.254,18.291,4.463,20.082,4.463,22.291z    M39.66,4.827c0,0-0.196,6.536-8.979,11.417C30.682,16.244,32.341,7.853,39.66,4.827z M14.292,4.827   c7.317,3.025,8.976,11.417,8.976,11.417C14.487,11.363,14.292,4.827,14.292,4.827z" fill="#f74e4e" data-original="#000000" style=""/>
</g>
<g xmlns="http://www.w3.org/2000/svg">
</g>
<g xmlns="http://www.w3.org/2000/svg">
</g>
<g xmlns="http://www.w3.org/2000/svg">
</g>
<g xmlns="http://www.w3.org/2000/svg">
</g>
<g xmlns="http://www.w3.org/2000/svg">
</g>
<g xmlns="http://www.w3.org/2000/svg">
</g>
<g xmlns="http://www.w3.org/2000/svg">
</g>
<g xmlns="http://www.w3.org/2000/svg">
</g>
<g xmlns="http://www.w3.org/2000/svg">
</g>
<g xmlns="http://www.w3.org/2000/svg">
</g>
<g xmlns="http://www.w3.org/2000/svg">
</g>
<g xmlns="http://www.w3.org/2000/svg">
</g>
<g xmlns="http://www.w3.org/2000/svg">
</g>
<g xmlns="http://www.w3.org/2000/svg">
</g>
<g xmlns="http://www.w3.org/2000/svg">
</g>
</g></svg>
